<svg width="84" height="31" viewBox="0 0 84 31" fill="none" xmlns="http://www.w3.org/2000/svg">
<path d="M15.4908 0L0.265869 30.4498H30.7157L15.4908 0ZM15.4908 5.6747L24.0723 22.8373H12.5828L13.8514 20.2997H19.9657L15.4908 11.3479L8.4778 25.375H25.3409L26.6095 27.9122H4.37202L15.4908 5.6747Z" fill="#5851D3"/>
<path d="M40.3191 0.165346C39.4378 0.205406 37.0743 0.165346 36.7538 0.165346C36.1929 0.125286 35.8324 0.445769 35.8724 1.00662C35.8724 1.24698 35.9526 1.48734 36.0727 1.68764C37.2345 3.89097 38.3161 6.37471 39.3577 8.6181L41.8815 13.9061C42.1219 14.4269 41.9616 14.8675 41.7613 15.3883C41.6411 15.6687 41.561 15.9892 41.4408 16.2696C39.8785 19.9552 38.1158 23.6808 36.233 27.2061C35.8324 27.9673 35.3917 28.7685 35.0312 29.5296C34.5504 30.4911 36.1529 30.2507 37.9556 30.2507C40.7999 30.2507 40.8399 30.0905 41.0002 29.7299C41.4408 28.8086 44.0848 20.6362 44.846 20.6362C45.4469 20.6362 48.4114 28.5281 49.0924 29.8101C49.2526 30.1306 49.7734 30.2908 50.174 30.2908H52.9382C53.459 30.2908 54.7008 30.451 54.7008 29.77C54.7008 29.2492 52.6978 25.8841 52.137 24.6423L49.6933 19.1941C49.2927 18.3127 48.9321 17.4314 48.5315 16.5901C48.2511 15.9091 47.7303 15.0278 47.6903 14.3067C47.6903 13.9061 52.2171 5.13284 53.8996 1.00662C54.3002 0.00510438 52.7779 0.205406 52.2572 0.205406C51.2957 0.245467 50.4945 0.205406 49.5731 0.245467C48.6918 0.245467 48.4514 0.485829 48.1309 1.24698L47.8906 1.80782C47.0894 3.49036 45.9276 6.57502 45.0863 8.25756C45.0463 8.33768 44.9261 8.45786 44.846 8.45786C44.7258 8.45786 44.6056 8.33768 44.6056 8.21749C43.9246 6.49489 42.5225 2.8494 41.7213 1.20692C41.3607 0.485829 41.1604 0.125286 40.3191 0.165346ZM64.2352 19.9151C64.115 15.3483 64.1551 10.5009 64.1952 5.97411C64.1952 4.57199 64.115 3.0497 64.115 1.64758C64.115 0.125285 63.5141 0.205406 62.7129 0.165346C61.5512 0.125286 61.0304 0.125286 59.8686 0.125286C59.1075 0.0852252 58.787 0.285527 58.787 1.04668C58.787 4.9726 58.6668 16.0693 58.7069 17.6718C58.7469 19.2742 58.9072 26.5652 58.8271 28.1676C58.787 28.7284 58.8271 29.2893 58.8671 29.8501C58.9072 30.0504 59.0274 30.2507 59.3479 30.2507C60.6699 30.1706 61.9117 30.1706 63.2337 30.1306C63.7144 30.0905 64.115 29.9703 64.3153 29.4495C64.3554 29.1691 64.2352 21.838 64.2352 19.9151ZM76.4937 0.00510439C75.7326 0.0451648 74.9714 0.165346 74.2103 0.405708C72.5678 0.966555 71.0856 2.08825 70.0841 3.53042C69.2027 4.85242 68.8422 6.41477 68.722 7.97713C68.6419 9.17895 68.7621 10.4208 69.3229 11.5025C69.9238 12.6642 70.9654 13.6657 71.8467 14.6272C72.6479 15.4684 73.4491 16.3097 74.3305 17.0709C75.1317 17.832 76.0531 18.4329 76.8543 19.2341C78.016 20.3959 78.4567 23.0399 77.6154 24.482C76.6139 26.0845 74.2503 26.3248 72.688 25.804C71.8868 25.5236 71.1657 24.9227 70.4847 24.442C70.0841 24.1616 69.6033 24.0414 69.3229 24.5221C69.1627 24.7625 69.0825 25.0429 69.0024 25.2832C68.722 26.2848 68.3615 27.2061 68.3214 28.2878C68.2813 29.5296 70.6449 29.8902 71.5262 30.0905C75.4522 31.0119 80.1793 30.2908 82.2224 26.4049C82.623 25.6037 82.9034 24.7625 83.0636 23.8811C83.1037 23.5606 83.1438 23.2802 83.1438 22.9597C83.304 20.3959 82.2624 18.2326 80.7001 16.3097C79.0175 14.2266 76.8943 12.7844 74.9314 10.9817C73.7295 9.85997 73.2889 8.09731 73.6494 6.4949C74.01 4.7723 75.9729 4.33163 77.4552 4.7723C77.8958 4.89248 78.2564 5.09278 78.657 5.33314C78.8973 5.45332 79.1377 5.61357 79.4582 5.61357C80.019 5.65363 80.0992 5.21296 80.2193 4.7723C80.4998 3.77079 80.9805 2.96958 81.1808 2.00813C81.3811 0.926494 80.4998 0.726192 79.6184 0.445769C78.5769 0.165346 77.5754 -0.034956 76.4937 0.00510439Z" fill="#5851D3"/>
</svg>
